<?xml version="1.0" encoding="utf-8"?>
<!-- Generator: Adobe Illustrator 24.3.0, SVG Export Plug-In . SVG Version: 6.00 Build 0)  -->
<svg version="1.1" id="Layer_1" xmlns="http://www.w3.org/2000/svg" xmlns:xlink="http://www.w3.org/1999/xlink" x="0px" y="0px"
	 viewBox="0 0 721.53 368.62" style="enable-background:new 0 0 721.53 368.62;" xml:space="preserve">
<style type="text/css">
	.st0{fill:#FFFFFF;}
	.st1{fill:none;}
	.st2{fill:#FA4E1B;}
	.st3{fill:#F88718;}
</style>
<rect x="6.13" y="298.91" class="st0" width="573.76" height="65.62"/>
<g>
	<path d="M3.68,367.41c0-24.19,0-48.26,0-72.54c192.49,0,384.95,0,577.57,0c0,24.07,0,48.19,0,72.54
		C388.84,367.41,196.4,367.41,3.68,367.41z M250.33,359.58c0-13.56,0-26.88,0-40.19c0.59,0.87,0.83,1.76,1.06,2.65
		c3.07,11.9,6.13,23.81,9.25,35.7c0.19,0.72,0.8,1.84,1.28,1.87c2.79,0.18,5.6,0.09,8.37,0.09c0-19.22,0-38.07,0-57.07
		c-2.65,0-5.2,0-8.01,0c0,10.93,0,21.74,0,32.54c-0.6-0.7-0.8-1.44-0.99-2.17c-2.45-9.54-4.88-19.09-7.38-28.62
		c-0.18-0.7-0.84-1.79-1.33-1.82c-3.36-0.16-6.74-0.08-10.24-0.08c0,19.18,0,38.07,0,57.1
		C244.95,359.58,247.44,359.58,250.33,359.58z M38.05,359.52c5.72,0,11.32,0.33,16.86-0.1c5.16-0.4,8.41-3.67,9.64-8.73
		c0.37-1.52,0.53-3.12,0.53-4.69c0.05-9.86,0.05-19.73,0.01-29.59c-0.01-1.57-0.17-3.16-0.52-4.69c-1-4.43-3.54-7.94-8.12-8.53
		c-6.03-0.78-12.18-0.7-18.41-0.99C38.05,321.68,38.05,340.58,38.05,359.52z M411.04,359.56c3.08,0,5.88,0,8.95,0
		c0-8.16,0-16.17,0-24.13c6.64-0.89,8.55,0.73,8.58,7.05c0.01,3.08-0.04,6.16,0.02,9.24c0.04,2.12,0.13,4.26,0.44,6.36
		c0.09,0.61,0.96,1.54,1.52,1.57c2.58,0.17,5.17,0.07,7.68,0.07c-0.22-2.25-0.54-4.28-0.59-6.31c-0.09-4.02,0.03-8.05-0.07-12.08
		c-0.1-4.43-0.82-8.62-5.7-10.88c3.41-1.7,5.12-4.37,5.33-7.68c0.24-3.83,0.25-7.73-0.18-11.54c-0.51-4.46-3.36-7.57-7.76-8.09
		c-5.98-0.71-12.05-0.66-18.22-0.94C411.04,321.64,411.04,340.54,411.04,359.56z M236.2,331.12c0-5.2,0.07-10.41-0.01-15.61
		c-0.17-11.17-10.09-17.3-20.27-12.55c-5.48,2.56-6.97,7.41-7.04,12.89c-0.1,7.57-0.05,15.14-0.01,22.71
		c0.02,3.54-0.1,7.11,0.28,10.63c0.72,6.7,4.65,10.46,11.32,11.27c9.32,1.14,15.52-4.13,15.71-13.5
		C236.29,341.69,236.2,336.4,236.2,331.12z M88.91,302.6c0,1,0,1.85,0,2.71c0,13.42,0.01,26.84-0.01,40.26
		c0,1.18-0.04,2.38-0.28,3.52c-0.47,2.29-2.1,3.23-4.32,3.22c-2.32,0-3.93-1.3-4.31-3.57c-0.18-1.08-0.15-2.2-0.15-3.31
		c-0.01-13.42-0.01-26.84-0.01-40.26c0-0.83-0.07-1.67-0.11-2.58c-3.05,0-5.85,0-8.92,0c0,1,0,1.84,0,2.69
		c0,11.37-0.01,22.73,0,34.1c0,3.08-0.08,6.16,0.13,9.23c0.48,7.29,5.07,11.61,12.44,11.93c7.79,0.34,12.89-3.57,13.98-10.76
		c0.2-1.32,0.2-2.68,0.2-4.02c0.01-13.58,0-27.15,0-40.73c0-0.77,0-1.54,0-2.45C94.62,302.6,91.97,302.6,88.91,302.6z
		 M132.81,359.71c2.41,0,4.53-0.08,6.64,0.03c1.44,0.07,1.91-0.51,2.05-1.88c0.25-2.51,0.74-5,1.03-7.5
		c0.15-1.31,0.58-1.96,2.06-1.88c2.2,0.13,4.42,0.11,6.63,0.01c1.4-0.06,1.95,0.43,2.09,1.84c0.25,2.59,0.62,5.17,1.09,7.73
		c0.11,0.6,0.77,1.53,1.22,1.56c2.63,0.15,5.28,0.07,8.03,0.07c-1.43-8.83-2.81-17.32-4.19-25.8c-1.59-9.81-3.2-19.61-4.75-29.43
		c-0.24-1.54-0.87-2.11-2.46-2.04c-2.68,0.13-5.37,0.13-8.05,0.01c-1.58-0.07-2.15,0.39-2.4,2.01c-1.6,10.29-3.33,20.55-5.01,30.83
		C135.47,343.28,134.17,351.3,132.81,359.71z M296.18,302.46c-3.3,0-6.53,0.15-9.73-0.05c-2.11-0.14-2.63,0.74-2.92,2.6
		c-2.11,13.31-4.33,26.6-6.49,39.91c-0.79,4.86-1.53,9.73-2.3,14.67c2.92,0,5.58,0,8.29,0c0.57-3.68,1.11-7.25,1.68-10.93
		c3.4,0,6.68,0,10.12,0c0.56,3.67,1.11,7.29,1.66,10.9c3.07,0,5.95,0,8.99,0C302.37,340.49,299.3,321.6,296.18,302.46z
		 M130.02,321.74c-0.23-3.67-0.08-7.18-0.74-10.53c-1.34-6.81-6.23-9.89-14.18-9.43c-6.54,0.37-10.82,4.42-11.54,10.96
		c-0.16,1.41-0.21,2.84-0.21,4.25c-0.02,9-0.03,18,0,27c0.01,1.97,0.02,3.96,0.27,5.91c0.75,5.87,4.35,9.48,10.24,10.47
		c6.43,1.07,11.96-1.26,14.38-6.18c2.5-5.07,1.28-10.44,1.64-15.72c-3.13,0-5.77,0-8.69,0c0,3.29,0.09,6.43-0.03,9.57
		c-0.11,2.83-1.64,4.21-4.35,4.2c-2.75-0.02-4.31-1.33-4.33-4.2c-0.08-11.29-0.07-22.58,0-33.87c0.02-2.83,1.85-4.35,4.6-4.24
		c2.4,0.09,3.91,1.48,4.05,4.04c0.14,2.56,0.03,5.14,0.03,7.77C124.22,321.74,126.81,321.74,130.02,321.74z M516.02,321.75
		c0-3.29,0.22-6.37-0.08-9.4c-0.18-1.81-0.92-3.71-1.87-5.28c-3.16-5.23-11.25-7.15-17.55-4.04c-1.81,0.89-3.72,2.44-4.57,4.18
		c-1.23,2.54-2.08,5.51-2.14,8.32c-0.24,10.33-0.17,20.67-0.08,31.01c0.09,10.28,6.48,15.48,16.59,13.68
		c4.75-0.84,8.16-3.55,9.09-8.17c0.89-4.4,0.75-9,1.07-13.62c-3.25,0-5.89,0-8.83,0c0,3.17,0.06,6.22-0.02,9.28
		c-0.08,2.88-1.3,4.22-3.83,4.5c-3.35,0.37-5-1.38-5.02-5.48c-0.03-10.34-0.03-20.68-0.02-31.01c0-0.86,0.07-1.74,0.25-2.59
		c0.41-1.93,1.66-2.98,3.6-3.21c3.01-0.35,4.89,1.31,5.01,4.54c0.09,2.41,0.02,4.82,0.02,7.27
		C510.65,321.75,513.24,321.75,516.02,321.75z M549.68,343.04c0.16,2.41,0.16,4.69,0.5,6.92c0.97,6.32,4.43,9.64,10.71,10.49
		c7.84,1.07,13.88-2.7,15.28-9.69c1.44-7.18,0.01-13.67-5.22-19.03c-2.75-2.82-5.71-5.44-8.46-8.27c-2.47-2.54-3.77-5.61-3.39-9.24
		c0.29-2.81,1.79-4.29,4.37-4.3c2.59,0,4.09,1.46,4.34,4.29c0.12,1.38,0.15,2.76,0.23,4.28c2.54,0,4.83,0,7.11,0
		c0.38,0,0.76-0.07,1.83-0.17c-0.67-3.46-0.86-6.9-2.04-9.95c-2.13-5.51-8.48-7.87-15.49-6.28c-4.47,1.01-7.47,3.7-8.67,8.13
		c-1.92,7.07-0.58,13.48,4.48,18.89c2.85,3.05,5.97,5.84,8.89,8.83c2.5,2.56,3.59,5.71,3.45,9.27c-0.13,3.43-1.63,5.04-4.63,5.05
		c-2.95,0.01-4.51-1.67-4.61-5.06c-0.04-1.38-0.01-2.77-0.01-4.14C555.34,343.04,552.69,343.04,549.68,343.04z M349.57,343.03
		c0,2.3-0.25,4.45,0.05,6.52c1.08,7.54,5.79,11.24,13.69,11c7.39-0.22,11.82-4.42,12.72-11.71c1.04-8.44-2.43-14.83-8.56-20.19
		c-2.07-1.81-4.09-3.72-5.92-5.78c-2.3-2.57-3.47-5.62-2.83-9.16c0.47-2.63,2.04-3.92,4.57-3.78c2.37,0.13,3.85,1.55,4.07,4.09
		c0.12,1.39,0.02,2.8,0.02,4.32c3,0,5.71,0,8.4,0c1.37-12.11-5.49-18.91-17.74-15.95c-4.09,0.99-6.64,3.86-7.74,7.88
		c-1.89,6.9-0.62,13.18,4.22,18.51c2.38,2.62,5.03,5,7.61,7.45c3.3,3.14,5.4,6.75,4.94,11.5c-0.3,3.06-1.85,4.64-4.61,4.58
		c-2.8-0.06-4.33-1.62-4.51-4.7c-0.09-1.48-0.01-2.96-0.01-4.57C355.02,343.03,352.37,343.03,349.57,343.03z M441.1,302.57
		c2.9,19.19,5.77,38.1,8.64,57.05c4.1,0,7.95,0,12,0c2.87-19.01,5.74-37.96,8.64-57.15c-2.39,0-4.28,0.14-6.15-0.04
		c-1.81-0.17-2.3,0.65-2.5,2.24c-0.94,7.51-1.94,15.02-2.93,22.53c-0.81,6.18-1.64,12.35-2.46,18.52c-0.13,0-0.26,0-0.39-0.01
		c-1.91-14.35-3.82-28.7-5.74-43.14C447.17,302.57,444.36,302.57,441.1,302.57z M405.62,359.61c0-2.83,0-5.39,0-8.22
		c-5.18,0-10.18,0-15.19,0c0-5.91,0-11.55,0-17.42c4.09,0,8,0,12.04,0c0-2.79,0-5.36,0-8.25c-4.08,0-8.06,0-11.99,0
		c0-5.15,0-9.98,0-15.01c5.16,0,10.11,0,15.13,0c0-2.82,0-5.44,0-8.06c-8.18,0-16.18,0-24.15,0c0,19.11,0,38,0,56.95
		C389.6,359.61,397.55,359.61,405.62,359.61z M17.44,333.94c4.21,0,8.18,0,12.13,0c0-2.87,0-5.44,0-8.3c-4.11,0-8.09,0-12.08,0
		c0-5.07,0-9.85,0-14.95c5.19,0,10.25,0,15.27,0c0-2.89,0-5.45,0-8.08c-8.19,0-16.2,0-24.29,0c0,19.06,0,37.96,0,56.9
		c8.19,0,16.25,0,24.34,0c0-2.7,0-5.19,0-8.02c-5.17,0-10.24,0-15.37,0C17.44,345.57,17.44,339.98,17.44,333.94z M521.79,302.59
		c0,19.14,0,38.03,0,56.95c8.18,0,16.17,0,24.1,0c0-2.74,0-5.3,0-8.07c-5.12,0-10.06,0-15.08,0c0-5.91,0-11.6,0-17.53
		c4.11,0,8.01,0,12.14,0c0-2.11-0.14-4,0.04-5.87c0.19-1.98-0.62-2.42-2.42-2.35c-3.27,0.12-6.56,0.03-9.82,0.03
		c0-5.14,0-9.92,0-15.01c5.14,0,10.14,0,15.17,0c0-2.88,0-5.45,0-8.16C537.85,302.59,529.92,302.59,521.79,302.59z M180.32,359.6
		c0-16.39,0-32.51,0-48.9c3.18,0,6.13,0,9.08,0c0-2.88,0-5.5,0-8.1c-9.27,0-18.31,0-27.4,0c0,2.77,0,5.39,0,8.26
		c3.14,0,6.09,0,9.27,0c0,16.38,0,32.51,0,48.74C174.32,359.6,177.13,359.6,180.32,359.6z M309.87,302.58c0,19.18,0,38.07,0,56.97
		c7.95,0,15.71,0,23.54,0c0-2.72,0-5.28,0-8.05c-4.87,0-9.58,0-14.63,0c0-16.4,0-32.6,0-48.92
		C315.64,302.58,312.84,302.58,309.87,302.58z M483.48,359.59c0-19.08,0-37.98,0-56.99c-2.99,0-5.78,0-8.7,0
		c0,19.05,0,37.96,0,56.99C477.7,359.59,480.51,359.59,483.48,359.59z M194.07,302.6c0,19.13,0,38.04,0,56.98c3,0,5.8,0,8.74,0
		c0-19.03,0-37.93,0-56.98C199.86,302.6,197.06,302.6,194.07,302.6z"/>
	<path d="M701.92,321.2c-1.45-0.34-2.31-0.47-3.13-0.74c-22.58-7.48-45.17-14.96-67.74-22.5c-4.87-1.63-6.05-4.59-3.8-8.92
		c1.38-2.65,3.31-3.77,6.23-2.89c6.41,1.94,12.73,4.13,19.08,6.25c16.14,5.38,32.27,10.79,48.42,16.16c5.76,1.92,6.99,5.2,3.85,10.5
		C704.23,320.11,702.73,320.63,701.92,321.2z"/>
	<path d="M624.8,299.34c0.61,0.2,1.94,0.47,3.12,1.03c21.04,10.03,42.08,20.09,63.1,30.17c3.95,1.89,5.06,4.1,3.96,7.43
		c-1.54,4.66-4.06,5.79-8.51,3.68c-21.06-9.99-42.12-20-63.17-30.01c-0.92-0.44-1.84-0.92-2.68-1.5c-2.16-1.49-2.81-3.36-2.09-5.74
		C619.44,301.39,621.65,299.38,624.8,299.34z"/>
	<path d="M677.28,360.03c-0.65,3.18-2.03,5.33-4.44,6.66c-2.09,1.15-3.82-0.02-5.41-1.24c-18.76-14.4-37.52-28.8-56.24-43.26
		c-3.92-3.02-4.06-6.02-0.77-9.35c2.51-2.54,5.01-2.66,8.21-0.21c6.2,4.74,12.35,9.55,18.52,14.32
		c11.79,9.11,23.59,18.21,35.37,27.33c1.06,0.82,2.18,1.62,3.01,2.65C676.36,357.92,676.83,359.19,677.28,360.03z"/>
	<path d="M705.28,296.77c-4.24-0.9-9.55-2.01-14.86-3.15c-17.48-3.74-34.95-7.5-52.42-11.25c-0.54-0.12-1.07-0.26-1.6-0.4
		c-5.2-1.38-6.86-5.49-4.16-10.2c1.3-2.27,3.31-2.38,5.55-1.89c8.62,1.87,17.23,3.74,25.85,5.59c14.32,3.08,28.64,6.16,42.96,9.23
		c0.54,0.12,1.08,0.23,1.61,0.38c3.63,1,4.6,2.43,4.07,5.94C711.65,295.04,709.78,296.88,705.28,296.77z"/>
	<path d="M639.14,253.06c7.72,0.83,15.55,1.68,23.39,2.52c15.51,1.67,31.02,3.36,46.54,5.01c5.68,0.6,7.7,2.99,6.93,8.35
		c-0.47,3.24-2.29,4.71-5.57,4.33c-9.47-1.11-18.93-2.3-28.4-3.41c-14.24-1.68-28.49-3.35-42.74-4.98
		c-3.35-0.38-4.43-1.36-4.68-4.71c-0.08-1.1-0.09-2.22,0.02-3.31C634.92,254.11,636.24,253.01,639.14,253.06z"/>
	<path d="M644.77,230.77c-7,0.47-9.84-3.49-7.7-8.75c0.84-2.08,2.64-2.89,4.68-3.12c7.21-0.81,14.43-1.55,21.65-2.29
		c14.91-1.53,29.82-3.03,44.73-4.55c0.08-0.01,0.16-0.03,0.23-0.04c8.28-1.05,9.06,3.35,7.82,10.04c-0.15,0.81-1.81,1.81-2.85,1.92
		c-16.32,1.71-32.65,3.28-48.97,4.89C657.38,229.56,650.39,230.23,644.77,230.77z"/>
	<path d="M678.13,236.47c11.59,0,23.17,0,34.76,0c3.08,0,4.34,1.01,4.75,4.06c0.22,1.63,0.26,3.31,0.17,4.95
		c-0.12,2.02-2.1,3.29-4.74,3.25c-7.8-0.12-15.6-0.27-23.4-0.33c-15.06-0.13-30.12-0.22-45.19-0.29c-1.65-0.01-3.33,0.38-4.95,0.2
		c-1.05-0.12-2.41-0.68-2.94-1.5c-2.31-3.51,0.32-9.62,4.44-10.37c1.99-0.36,4.08-0.28,6.12-0.29c10.33-0.02,20.66-0.01,30.99-0.01
		C678.13,236.26,678.13,236.36,678.13,236.47z"/>
	<path d="M635.36,206.42c-0.17-2.4,0.99-3.61,3.3-4.1c22.49-4.79,44.96-9.63,67.45-14.45c3.92-0.84,6.04,0.72,6.94,5.02
		c0.88,4.21-0.33,6.18-4.43,7.02c-13.35,2.72-26.7,5.4-40.05,8.11c-8.87,1.8-17.73,3.64-26.61,5.44c-1,0.2-2.03,0.28-3.05,0.33
		c-1.7,0.08-2.67-0.85-2.94-2.45C635.7,209.72,635.56,208.06,635.36,206.42z"/>
	<path d="M637.28,196.78c-0.72-0.08-1.17-0.02-1.49-0.19c-3.22-1.78-2.69-5.28-3.43-8.1c-0.5-1.92,1.3-2.75,3-3.29
		c20.27-6.42,40.54-12.86,60.8-19.3c1.58-0.5,3.14-1.03,4.74-1.47c0.66-0.18,1.4-0.3,2.05-0.17c2.41,0.5,4.23,3.56,4.46,7.41
		c0.14,2.47-1.55,3.47-3.53,4.11c-11.85,3.8-23.7,7.58-35.56,11.35c-9.38,2.99-18.76,5.96-28.15,8.93
		C639.13,196.39,638.05,196.59,637.28,196.78z"/>
	<path d="M699.73,150.56c-4.93,2.28-9.66,4.56-14.47,6.67c-16.23,7.14-32.5,14.22-48.74,21.34c-3.3,1.45-4.81,1.3-6.25-0.83
		c-2.2-3.24-2.29-7.12-0.06-9.15c0.97-0.88,2.17-1.6,3.37-2.13c18.34-8.04,36.69-16.03,55.05-24.03c0.87-0.38,1.74-0.76,2.64-1.04
		c2.57-0.81,4.32-0.18,5.51,2.22C697.83,145.71,698.63,147.93,699.73,150.56z"/>
	<path d="M621.54,154.56c1.39-1.48,2.42-3.08,3.88-4.03c3.97-2.56,8.09-4.88,12.21-7.21c13.99-7.91,28-15.79,42.02-23.66
		c2.9-1.63,4.58-1.13,6.27,1.73c0.2,0.34,0.39,0.68,0.58,1.03c2.42,4.59,2.05,6.02-2.39,8.55c-18.08,10.29-36.17,20.55-54.26,30.82
		c-2.81,1.59-3.59,1.42-5.26-1.38C623.55,158.69,622.72,156.86,621.54,154.56z"/>
	<path d="M615.35,139.21c0.03-3.56,1.71-4.98,3.55-6.29c5.91-4.2,11.84-8.37,17.74-12.59c9.17-6.56,18.31-13.14,27.47-19.71
		c0.7-0.5,1.41-1.01,2.16-1.45c0.54-0.31,1.12-0.64,1.72-0.74c3.69-0.65,4.49,2.57,5.96,4.7c1.17,1.69,1.69,3.71-0.37,5.26
		c-5.86,4.4-11.71,8.81-17.66,13.08c-9.8,7.03-19.67,13.95-29.5,20.94c-1.28,0.91-2.41,2.04-3.69,2.95
		c-1.86,1.33-3.45,1.18-4.65-0.74C616.85,142.66,615.97,140.47,615.35,139.21z"/>
	<path d="M605.26,122c1.23-1.65,2.07-3.27,3.34-4.42c8.82-7.99,17.73-15.9,26.61-23.82c4.71-4.2,9.42-8.39,14.15-12.57
		c1.55-1.36,3.31-3.11,5.41-1.85c2.48,1.5,4.67,3.74,4.97,6.81c0.11,1.07-1.12,2.54-2.1,3.42c-11.85,10.64-23.76,21.22-35.66,31.8
		c-2.47,2.2-4.96,4.39-7.48,6.54c-2.43,2.07-3.94,1.97-5.79-0.51C607.51,125.8,606.54,124.03,605.26,122z"/>
	<path d="M594.37,106.71c1.02-1.69,1.56-3.03,2.47-4.03C608.86,89.42,620.93,76.2,633,62.99c2.14-2.35,2.44-2.35,5.01-0.51
		c0.19,0.14,0.4,0.25,0.6,0.38c4.97,3.45,5.31,6.56,1.15,11.06c-7.38,7.99-14.8,15.95-22.16,23.96c-4.37,4.76-8.67,9.58-12.97,14.4
		c-2.14,2.4-3.72,2.56-5.89,0.17C597.15,110.71,595.86,108.69,594.37,106.71z"/>
	<path d="M581.94,91.59c0.79-1.57,1.23-2.86,2-3.9c9.71-13.1,19.46-26.18,29.23-39.24c2.37-3.17,3.85-3.25,6.95-0.63
		c5.19,4.38,5.17,4.52,1.14,9.96c-9.48,12.79-18.91,25.61-28.39,38.39c-2.74,3.7-4.42,3.8-7.46,0.36
		C584.11,95.04,583.11,93.27,581.94,91.59z"/>
	<path d="M331.5,156.55c-0.61,3.12-2.06,5-4.4,6.11c-2.07,0.99-3.67-0.21-5.06-1.55c-13.48-13.04-26.96-26.09-40.4-39.17
		c-2.78-2.7-2.77-4.53-0.2-7.26c2.51-2.66,5.01-2.86,7.6-0.38c13.52,12.99,27.03,26.01,40.48,39.08
		C330.47,154.31,330.98,155.69,331.5,156.55z"/>
	<path d="M302.58,97.43c0.83,0.72,2.07,1.51,2.96,2.6c9.05,11.13,18.04,22.3,27.05,33.46c2.67,3.31,5.38,6.59,8.06,9.89
		c2.37,2.91,2.26,4.68-0.42,7.1c-2.99,2.69-5.26,2.81-7.71-0.11c-4.82-5.72-9.45-11.61-14.16-17.43
		c-6.84-8.46-13.71-16.89-20.49-25.39c-3.02-3.78-1.64-8.11,2.96-9.72C301.2,97.71,301.59,97.65,302.58,97.43z"/>
	<path d="M354.55,138.32c-1.21,1.07-2.32,2.36-3.7,3.22c-3.52,2.2-4.7,1.88-6.9-1.51c-10.04-15.49-20.07-30.98-30.1-46.48
		c-2.21-3.42-1.82-5.2,1.59-7.45c3.19-2.11,5.56-1.74,7.62,1.51c10.08,15.84,20.1,31.71,30.11,47.59
		C353.68,135.97,353.94,136.89,354.55,138.32z"/>
	<path d="M379.1,120.35c0.05,3.1-2.32,5.5-5.53,6.14c-2.26,0.45-3.53-0.48-4.65-3.64c-5.88-16.63-11.73-33.27-17.59-49.91
		c-0.18-0.52-0.46-1.02-0.54-1.56c-0.25-1.62-1.18-4.02-0.47-4.73c1.63-1.62,3.97-2.87,6.22-3.43c2.16-0.53,3.24,1.56,3.91,3.39
		c1.32,3.62,2.54,7.29,3.82,10.92c4.6,13.07,9.22,26.14,13.81,39.22C378.53,118.1,378.85,119.48,379.1,120.35z"/>
	<path d="M337.7,72.02c1.11,1.13,2.3,1.87,2.82,2.93c8.12,16.55,16.15,33.14,24.19,49.72c2.25,4.64,0.47,8.68-4.46,10.2
		c-1.82,0.56-2.81-0.35-3.53-1.87c-7.94-16.63-15.88-33.26-23.84-49.88c-0.54-1.13-1.51-2.13-1.79-3.3
		c-0.28-1.18-0.47-3.08,0.19-3.67C333.03,74.57,335.27,73.52,337.7,72.02z"/>
	<path d="M392.85,115.62c-0.43,0.65-0.81,1.84-1.62,2.33c-1.6,0.97-3.38,1.71-5.17,2.26c-1.7,0.52-2.43-0.8-2.8-2.16
		c-0.74-2.73-1.4-5.5-2.05-8.25c-3.69-15.65-7.36-31.3-11.04-46.95c-1.08-4.58,1.87-7.89,6.63-7.39c1.91,0.2,2.89,1.46,3.29,3.22
		c3.2,14.14,6.39,28.28,9.57,42.42C390.72,105.78,391.72,110.48,392.85,115.62z"/>
	<path d="M575.41,84.28c-3-0.6-5.05-2.17-6.61-4.31c-1.36-1.86-0.63-3.78,0.41-5.54c7.57-12.81,15.14-25.63,22.75-38.42
		c2.1-3.53,4.01-3.95,7.38-1.83c4.19,2.65,4.89,4.94,2.79,8.43c-7.26,12.08-14.45,24.21-21.69,36.3c-0.8,1.34-1.65,2.7-2.68,3.86
		C577.12,83.5,576.1,83.86,575.41,84.28z"/>
	<path d="M407.32,110.39c-0.87,0.93-1.58,2.15-2.65,2.72c-1.36,0.72-2.98,0.99-4.51,1.32c-1.8,0.39-2.89-0.61-3.24-3.12
		c-0.58-4.22-1.03-8.45-1.55-12.68c-1.66-13.7-3.32-27.39-4.99-41.09c-0.06-0.47-0.13-0.94-0.18-1.41
		c-0.44-4.42,2.85-7.25,7.24-6.29c2.04,0.45,2.39,1.96,2.6,3.71c0.86,7.2,1.79,14.4,2.67,21.6c1.33,10.88,2.64,21.76,3.95,32.64
		c0.08,0.7,0.12,1.41,0.17,2.12C406.99,110.09,407.16,110.24,407.32,110.39z"/>
	<path d="M411.15,47.41c1.73-0.3,3.41-0.68,5.12-0.87c3.32-0.37,4.55,0.67,4.63,4.02c0.17,7.18,0.26,14.37,0.38,21.55
		c0.17,10.11,0.36,20.21,0.49,30.32c0.06,4.61-1.87,6.74-6.34,7.18c-2.84,0.28-3.92-0.65-3.96-3.57
		c-0.17-10.03-0.34-20.05-0.44-30.08c-0.09-8.76-0.08-17.52-0.09-26.28C410.94,48.99,411.07,48.29,411.15,47.41z"/>
	<path d="M430.42,106.47c-3.83-0.08-4.06-0.31-3.71-4.33c1.55-17.61,3.13-35.22,4.68-52.84c0.16-1.76,0.61-3.56,2.51-3.84
		c2.18-0.32,4.47-0.21,6.65,0.11c0.46,0.07,0.99,1.91,0.92,2.89c-1,12.91-2.09,25.81-3.19,38.71c-0.38,4.48-0.87,8.96-1.32,13.43
		C436.49,105.2,434.96,106.56,430.42,106.47z"/>
	<path d="M560.03,71.15c-5.97-0.12-8.74-4.68-6.23-10.08c4.88-10.5,9.68-21.03,14.51-31.56c0.39-0.86,0.77-1.73,1.2-2.57
		c2.42-4.71,5.52-5.58,10.03-2.83c2.6,1.58,3.17,3.25,1.88,5.96c-4.85,10.18-9.77,20.33-14.58,30.53c-1.14,2.41-1.95,4.97-2.9,7.46
		C563.25,69.88,562.28,71.32,560.03,71.15z"/>
	<path d="M445.45,104.35c-3.37,0.1-4.23-0.81-3.66-3.72c2.21-11.29,4.37-22.58,6.59-33.87c1.17-5.95,2.35-11.9,3.68-17.82
		c0.62-2.77,1.91-3.52,4.78-3.35c0.71,0.04,1.41,0.12,2.12,0.22c2.43,0.35,3.25,1.21,2.84,3.64c-0.97,5.75-2.1,11.47-3.18,17.2
		c-1.99,10.53-4.02,21.05-6,31.58C451.74,102.87,450.21,104.21,445.45,104.35z"/>
	<path d="M462.34,103.9c-4.97-0.24-5.45-0.92-4.01-5.75c4.56-15.32,9.12-30.63,13.68-45.95c1.18-3.97,5.41-5.41,8.89-3.03
		c1.55,1.07,1.25,2.6,0.82,4.07c-1.61,5.52-3.25,11.02-4.9,16.53c-2.98,9.95-5.96,19.9-8.96,29.85
		C466.82,103.07,465.52,104.05,462.34,103.9z"/>
	<path d="M478.62,105.15c-0.24-0.03-0.71-0.08-1.17-0.16c-5.24-0.95-5.44-1.63-3.43-6.5c5.41-13.1,10.64-26.27,15.94-39.41
		c0.26-0.66,0.49-1.33,0.77-1.98c2.02-4.52,6.81-5.59,10.41-2.15c0.51,0.49,0.37,2.08,0.03,2.96c-2.7,6.89-5.52,13.73-8.33,20.58
		c-3.16,7.72-6.34,15.44-9.5,23.16C482.51,103.69,481.31,105.22,478.62,105.15z"/>
	<path d="M551.74,12.73c5.14,0,7.65,3.2,6.1,8c-3.89,11.97-7.87,23.92-11.83,35.87c-0.3,0.89-0.55,1.93-1.18,2.54
		c-0.71,0.68-2.1,1.55-2.7,1.28c-2.18-1-4.33-2.23-6.1-3.82c-0.74-0.66-0.96-2.58-0.6-3.67c4.04-12.51,8.23-24.96,12.4-37.43
		C548.43,13.67,549.72,12.64,551.74,12.73z"/>
	<path d="M494.44,107.69c-0.08-0.01-0.16-0.01-0.24-0.02c-6.82-0.8-6.3-2.67-4.04-6.94c6.68-12.61,13.24-25.29,19.87-37.93
		c1.82-3.46,2.79-3.75,6.4-2.16c4.21,1.85,4.42,2.37,2.33,6.42c-6.43,12.47-12.89,24.93-19.35,37.39
		C498.39,106.47,497.01,108,494.44,107.69z"/>
	<path d="M515.84,45.21c0.93-4.5,1.68-8.45,2.58-12.36c1.64-7.13,3.28-14.27,5.11-21.35c1.07-4.12,3.26-5.13,7.29-3.83
		c3.16,1.02,4.51,3.05,3.81,6.33c-2.31,10.87-4.7,21.72-7.13,32.57c-0.65,2.89-2.39,3.92-5.26,3.2c-1.43-0.36-2.95-0.82-4.13-1.66
		C517.09,47.37,516.48,46.05,515.84,45.21z"/>
	<path d="M510.83,112.8c-1.93-0.95-3.62-1.47-4.94-2.49c-1.88-1.46-0.94-3.31,0.03-4.87c2.36-3.82,4.82-7.57,7.24-11.35
		c4.88-7.62,9.76-15.25,14.65-22.87c1.62-2.53,4.08-2.79,7.4-0.79c2.47,1.49,2.79,2.9,0.98,5.71
		c-7.23,11.26-14.49,22.51-21.84,33.69C513.57,111.01,512.09,111.75,510.83,112.8z"/>
	<path d="M510.91,10.87c-0.85,6.64-1.74,13.27-2.53,19.92c-0.28,2.34-0.37,4.71-0.46,7.07c-0.15,3.75-1.36,4.91-5.12,4.77
		c-5.35-0.19-7.26-2.39-6.66-7.59c1.01-8.77,2.01-17.54,2.98-26.31c0.48-4.31,1.99-5.67,6.29-5.5c0.71,0.03,1.41,0.15,2.12,0.16
		c2.1,0.03,3.15,0.96,2.98,3.18c-0.11,1.41-0.02,2.84-0.02,4.25C510.62,10.84,510.77,10.86,510.91,10.87z"/>
	<path d="M526.21,118.25c-3.17-0.38-5-1.57-6.03-3.67c-0.96-1.95,0.56-3.18,1.65-4.53c4.25-5.27,8.48-10.55,12.66-15.88
		c3.16-4.03,6.25-8.12,9.35-12.2c1.99-2.62,3.58-3.05,6-1.53c2.86,1.8,3.74,4.18,1.95,6.77c-2.64,3.82-5.62,7.4-8.48,11.07
		c-4.46,5.71-8.89,11.45-13.47,17.06C528.77,116.66,527.15,117.52,526.21,118.25z"/>
	<path d="M486.42,19.63c0,4.34,0.01,8.68,0,13.03c-0.01,3.72-1.09,4.66-4.73,4.14c-6.84-0.97-6.97-0.97-7.04-7.89
		c-0.07-7.42,0.08-14.84,0.21-22.26c0.05-3.02,1.33-4.42,4.29-5.06c0.23-0.05,0.46-0.1,0.7-0.13c5.63-0.82,6.79,0.17,6.8,5.85
		c0.01,4.11,0,8.21,0,12.32C486.57,19.63,486.5,19.63,486.42,19.63z"/>
	<path d="M539.95,126.64c-1.82-1.15-3.71-2.01-5.15-3.36c-1.34-1.26-0.21-2.66,0.77-3.71c3.99-4.26,8-8.5,12.05-12.7
		c4.17-4.31,8.36-8.59,12.62-12.81c2.27-2.25,4.22-2.21,6.38-0.12c2.16,2.09,2.28,3.89,0.16,6.13
		c-5.64,5.96-11.34,11.86-17.02,17.77c-2.19,2.27-4.36,4.57-6.63,6.75C542.32,125.36,541.23,125.83,539.95,126.64z"/>
	<path d="M456.69,2.43c4.19-0.22,5.07,0.6,5.46,4.8c0.7,7.54,1.42,15.07,2.14,22.6c0.3,3.12-0.67,4.25-3.77,4.24
		c-1.18-0.01-2.36-0.11-3.53-0.26c-2.37-0.32-3.88-1.51-4.14-4.06c-0.74-7.52-1.62-15.03-2.25-22.56c-0.31-3.68,0.67-4.53,4.42-4.75
		C455.58,2.4,456.13,2.43,456.69,2.43z"/>
	<path d="M581.4,111.61c-1.01,1.58-1.5,2.9-2.44,3.73c-7.42,6.58-14.88,13.11-22.42,19.55c-2.16,1.85-4.27,1.2-6.63-1.61
		c-1.65-1.96-1.55-3.63,0.62-5.51c7.43-6.46,14.91-12.86,22.4-19.25c1.3-1.11,2.93-2.01,4.52-0.89
		C578.9,108.64,579.99,110.15,581.4,111.61z"/>
	<path d="M432.37,5.65c0.42,0.21,1.56,0.56,2.43,1.26c4.04,3.22,4.95,7.85,5.47,12.62c0.34,3.13,0.65,6.27,0.98,9.4
		c0.29,2.73-0.27,3.44-3.04,3.99c-1.38,0.27-2.72,0.78-4.11,0.88c-0.65,0.05-1.54-0.47-1.98-1.01c-3.31-4.07-4.4-8.98-5.03-14.03
		c-0.29-2.34-0.52-4.7-0.83-7.04C425.78,8.01,427.78,5.72,432.37,5.65z"/>
	<path d="M592.7,128.05c-0.88,1.22-1.45,2.62-2.49,3.38c-6.98,5.12-14.02,10.15-21.12,15.1c-2.7,1.88-5.02,1.1-6.85-1.99
		c-1.7-2.87-1.19-4.23,1.71-6.19c5.53-3.75,10.9-7.74,16.42-11.5c2.27-1.54,4.78-2.71,7.14-4.13c1.23-0.74,2.02-0.46,2.66,0.75
		C590.93,124.91,591.74,126.32,592.7,128.05z"/>
	<path d="M602,145.83c-0.59,0.74-1.28,2.29-2.48,3c-6.48,3.89-13.07,7.59-19.64,11.31c-1.98,1.12-3.63,0.62-4.86-1.29
		c-0.13-0.2-0.25-0.4-0.38-0.6c-2.67-4.04-2.5-4.6,1.74-7c6.09-3.46,12.2-6.89,18.19-10.51C599.19,137.95,600.93,138.7,602,145.83z"
		/>
	<path d="M411.88,36.15c-1.36-0.85-2.68-1.31-3.49-2.22c-4.61-5.26-6.23-11.55-5.78-18.4c0.06-0.85,0.83-1.92,1.58-2.39
		c1.17-0.73,2.59-1.09,3.94-1.48c2.08-0.61,3.54,0.07,4.7,2.02c3.34,5.61,4.62,11.83,5.59,18.15c0.07,0.44-0.2,1.21-0.54,1.39
		C415.98,34.24,414.01,35.13,411.88,36.15z"/>
	<path d="M610.29,164.05c-0.55,0.72-0.96,1.82-1.72,2.18c-6.61,3.09-13.26,6.12-19.99,8.95c-0.85,0.36-2.49-0.26-3.31-0.96
		c-0.96-0.81-1.48-2.18-2.09-3.36c-0.84-1.63-0.36-2.97,1.25-3.72c6.7-3.11,13.41-6.2,20.16-9.19c1.8-0.8,3.39-0.38,4.09,1.81
		C609.11,161.1,609.66,162.4,610.29,164.05z"/>
	<path d="M387.93,19.62c3.47,4.33,6.31,8.82,7.31,14.23c0.39,2.09,0.81,4.34-1.51,5.71c-2.46,1.46-5.01,1.8-7.56,0.17
		c-4.21-2.71-5.65-6.97-6.4-11.59c-0.15-0.93-0.15-1.88-0.27-2.82c-0.25-1.96,0.67-3.18,2.44-3.79
		C383.86,20.86,385.81,20.29,387.93,19.62z"/>
	<path d="M593.06,191.25c-0.43-1.69-0.8-3.13-1.16-4.57c-0.37-1.48-0.05-2.65,1.46-3.3c3.98-1.69,7.86-3.69,11.96-4.95
		c2.35-0.72,5.08-0.37,7.61-0.21c1.76,0.11,2.62,1.7,2.55,3.21c-0.07,1.43-0.49,3.63-1.44,4.1c-6.09,3.02-12.12,6.53-19.34,5.93
		C594.15,191.43,593.61,191.33,593.06,191.25z"/>
	<path d="M373.07,43.05c0.05,2.09-0.88,3.49-2.89,4.05c-1.66,0.46-3.35,0.84-5.04,1.17c-0.4,0.08-0.97-0.07-1.28-0.33
		c-2.84-2.43-5.38-5.11-6.21-8.93c-0.68-3.13,0.36-5.47,3-7.02c2.68-1.58,4.81-1.39,7.32,0.81
		C371.07,35.5,372.81,38.92,373.07,43.05z"/>
	<path d="M606.28,209.54c-6.75-0.03-8.6-2.05-7.56-6.86c0.14-0.66,0.68-1.5,1.26-1.75c4.8-2.04,9.75-3.57,15.03-3.74
		c1.82-0.06,3.35,0.28,3.69,2.4c0.34,2.13,1.25,4.46-1.16,6C613.69,208.07,609.49,209.53,606.28,209.54z"/>
	<path d="M619.65,218.07c0.09,0.32,0.15,0.47,0.16,0.62c0.65,7.54,0.11,8.49-7.49,9.89c-2.32,0.43-4.98-0.07-7.3-0.76
		c-2.21-0.65-2.72-2.86-2.67-5.04c0.05-2.03,1.34-3.04,3.07-3.74C609.4,217.41,615.29,216.97,619.65,218.07z"/>
	<path d="M336.59,50.63c0.27-2.29,1.75-4.32,4.17-5.63c2.22-1.2,4.25-0.52,6.08,1.02c0.66,0.56,1.37,1.07,1.95,1.7
		c1.73,1.86,3.44,4.39,2.1,6.52c-1.33,2.12-3.92,3.9-6.34,4.77C341.72,60.01,336.56,54.53,336.59,50.63z"/>
	<path d="M612.01,248.86c-0.63-0.05-1.26-0.06-1.88-0.15c-4.02-0.6-5.69-2.55-5.28-6.64c0.11-1.06,0.99-2.4,1.91-2.97
		c3.45-2.13,7.18-2.22,10.84-0.48c2.98,1.42,3.02,6.55-0.06,8.55c-1.58,1.02-3.56,1.42-5.36,2.1
		C612.12,249.13,612.06,249,612.01,248.86z"/>
	<path d="M323.53,72.04c-3.29-0.05-6.26-2.79-6.14-5.67c0.13-3.24,4.03-6.99,7.29-7.01c2.07-0.01,6.5,4.2,6.48,6.17
		C331.12,68.66,327.09,72.1,323.53,72.04z"/>
	<path d="M610.06,258.32c3.8,0.01,6.69,2.13,6.65,4.87c-0.06,3.46-2.77,6.43-5.9,6.43c-3.63,0-6.49-1.97-6.43-4.44
		C604.49,260.72,606.48,258.32,610.06,258.32z"/>
	<path d="M606.29,290.07c-2.86-0.01-4.91-2.2-4.87-5.21c0.05-2.99,2.31-6.14,4.43-6.15c3.12-0.03,5.92,2.24,5.88,4.77
		C611.69,286.77,608.96,290.08,606.29,290.07z"/>
	<path d="M598.99,299.34c2.46,0.1,4.25,1.62,4.16,3.53c-0.12,2.58-2.21,4.87-4.29,4.72c-2.06-0.14-3.35-1.79-3.22-4.12
		C595.76,301.19,597.31,299.27,598.99,299.34z"/>
	<path d="M47.16,310.84c1.9,0,3.8-0.36,5.45,0.12c1.21,0.35,2.41,1.62,3.06,2.79c0.56,1.01,0.44,2.45,0.44,3.71
		c0.03,8.68,0.02,17.36,0.02,26.04c0,7.47-1.35,8.66-8.98,7.83C47.16,337.9,47.16,324.46,47.16,310.84z"/>
	<path d="M420.11,311.03c0.17-0.1,0.24-0.16,0.3-0.17c6.87-0.63,8.12,0.5,8.11,7.38c0,0.39,0,0.79,0,1.18
		c0,6.72-1.38,7.96-8.42,7.44C420.11,321.64,420.11,316.39,420.11,311.03z"/>
	<path d="M227.16,331.28c0,5.28,0.04,10.56-0.02,15.85c-0.02,2.24-0.6,4.28-3.12,4.98c-3.15,0.88-5.54-0.63-5.95-3.89
		c-0.25-1.94-0.21-3.93-0.22-5.9c-0.02-8.28-0.01-16.55,0-24.83c0-1.18,0.05-2.37,0.21-3.53c0.38-2.66,1.9-4,4.39-4.02
		c2.63-0.02,4.31,1.34,4.57,4.1c0.22,2.35,0.11,4.72,0.12,7.09c0.01,3.39,0,6.78,0,10.17C227.16,331.28,227.16,331.28,227.16,331.28
		z"/>
	<path d="M148.08,313.8c1.26,8.88,2.51,17.75,3.79,26.78c-2.68,0-5.18,0-7.95,0c1.25-9,2.48-17.93,3.72-26.86
		C147.79,313.75,147.93,313.78,148.08,313.8z"/>
	<path d="M290,314.13c1.23,8.74,2.47,17.49,3.73,26.42c-2.67,0-5.14,0-7.93,0c1.22-8.85,2.44-17.64,3.65-26.42
		C289.63,314.13,289.81,314.13,290,314.13z"/>
	<path class="st1" d="M516.11,253.01c0.33-0.01,0.92-0.71,0.92-1.08c-0.03-2.75-0.03-5.52-0.35-8.25c-0.24-2.1-1.05-4.13-1.39-6.23
		c-0.09-0.57-0.18-1.14-0.26-1.71c-2.67,0.44-5.41,0.89-8.22,1.34c-0.72,5.28-1.44,10.6-2.17,15.98
		C508.77,253.06,512.44,253.09,516.11,253.01z"/>
	<path class="st1" d="M18.36,231c1.72,0.12,3.47,0.03,5.2-0.03c1.36-0.05,2.55-0.35,3.54-0.89c-3.49-0.97-6.96-1.98-10.41-3.01
		c0.01,0.95,0.01,1.91,0.03,2.86C16.72,230.31,17.77,230.96,18.36,231z"/>
	<path class="st1" d="M553.85,232.37c0.02,0.76,0.73,2.16,1.11,2.16c2.97,0,6.01,0.06,8.87-0.61c1.37-0.32,3.54-1.11,3.55-3.36
		c0.01-1.47,0.02-2.94,0.02-4.41c-3.84,0.78-8.4,1.69-13.62,2.7C553.8,230.02,553.82,231.19,553.85,232.37z"/>
	<path class="st2" d="M23.56,230.96c-1.73,0.06-3.48,0.16-5.2,0.03c-0.59-0.04-1.64-0.69-1.64-1.07c-0.01-0.95-0.02-1.91-0.03-2.86
		c-4.31-1.29-8.6-2.62-12.86-4.01c-0.03,18.48-0.05,36.96-0.07,55.44c0,0.75,0.1,1.51,0.16,2.43c6.8,0,13.34,0.01,19.89-0.01
		c1.5,0,3.01,0.06,4.49-0.13c9.67-1.22,15.05-6.29,16.08-15.93c0.54-4.99,0.33-10.09,0.04-15.12c-0.37-6.26-3.08-11.21-9.72-13.73
		c0.67-0.63,1-1.06,1.43-1.34c0.75-0.5,1.46-1.04,2.11-1.61c-3.73-0.96-7.45-1.96-11.14-2.99
		C26.11,230.61,24.92,230.92,23.56,230.96z M31.34,264.15c-0.19,3.29-2.43,4.8-5.86,5.01c-2.2,0.13-4.41-0.02-6.61,0.07
		c-1.52,0.06-2.11-0.51-2.08-2.05c0.07-3.78,0.02-7.56,0.02-11.35c0-3.62,0.09-7.25-0.03-10.87c-0.07-1.93,0.7-2.53,2.5-2.39
		c2.11,0.17,4.24,0.15,6.35,0.36c3.03,0.3,5.25,2.06,5.48,4.99C31.52,253.32,31.66,258.77,31.34,264.15z"/>
	<path class="st2" d="M52.93,278.43c-0.01,1.97,0.56,2.65,2.53,2.53c2.6-0.15,5.22-0.18,7.81,0c2.24,0.16,2.81-0.68,2.79-2.82
		c-0.1-9.71-0.06-19.42-0.04-29.13c0.01-5.26-0.62-4.39,4.53-4.59c5.32-0.21,8.2,1.95,8.49,7.25c0.42,7.56,0.27,15.14,0.44,22.71
		c0.04,1.72,0.3,3.46,0.65,5.14c0.11,0.53,0.84,1.31,1.31,1.32c3.92,0.11,7.84,0.06,11.45,0.06c-0.22-4.85-0.5-9.39-0.61-13.94
		c-0.12-4.89,0.23-9.81-0.18-14.67c-0.24-2.87-0.74-5.66-1.91-8.07c-12.5-2.2-24.89-4.7-37.11-7.54
		C53.05,250.6,53.03,264.52,52.93,278.43z"/>
	<path class="st2" d="M152.34,260.95c-0.04,5.97-2.44,8.23-8.42,8.26c-5.73,0.03-5.73,0.03-5.73-5.73c0-4.11,0-8.22,0-12.32
		c-4.23-0.49-8.46-1.01-12.67-1.55c0,0.59,0,1.19,0,1.78c-0.02,9.15-0.1,18.3-0.17,27.45c-0.01,1.22,0.09,2.13,1.73,2.11
		c7.1-0.08,14.2,0.16,21.29-0.14c8.85-0.38,14.68-5.42,16.18-14.1c0.69-3.99,0.49-8.15,0.51-12.24c0-0.2,0-0.41,0-0.61
		c-4.22-0.36-8.44-0.75-12.65-1.17C152.38,255.44,152.36,258.2,152.34,260.95z"/>
	<path class="st2" d="M357.86,278.63c-0.02,1.68,0.39,2.45,2.25,2.35c2.67-0.15,5.37-0.19,8.04,0c2.19,0.15,2.63-0.75,2.6-2.73
		c-0.12-8.31-0.16-16.63-0.18-24.94c-4.15,0.32-8.33,0.63-12.55,0.92C357.99,262.36,357.95,270.49,357.86,278.63z"/>
	<path class="st2" d="M330.33,261.04c-0.06,5.99-0.16,11.99-0.28,17.98c-0.03,1.39,0.43,1.98,1.91,1.94c2.92-0.09,5.84-0.11,8.76,0
		c1.9,0.08,2.42-0.66,2.39-2.49c-0.13-7.75-0.21-15.5-0.28-23.26c-4.16,0.25-8.36,0.48-12.57,0.7
		C330.28,257.61,330.35,259.33,330.33,261.04z"/>
	<path class="st2" d="M200.77,263.9c-0.18,3.32-1.94,5.5-4.58,6.2c-5.25,1.39-8.97-1.17-9.41-6.57c-0.22-2.67-0.35-5.35-0.36-8.03
		c0-0.01,0-0.03,0-0.04c-4.24-0.27-8.48-0.57-12.71-0.9c-0.01,1.71-0.01,3.42-0.02,5.13c-0.03,5.52,0.49,10.94,3.89,15.55
		c4.89,6.61,11.93,7.33,19.35,6.66c8.17-0.73,13.99-5.83,15.46-13.89c0.57-3.14,0.46-6.42,0.48-9.64c0-0.51,0-1.03,0.01-1.54
		c-3.92-0.16-7.84-0.33-11.76-0.53C201.02,258.84,200.91,261.37,200.77,263.9z"/>
	<path class="st2" d="M466.71,244.81c0.55-0.04,1.11,0.06,1.66-0.01c2.14-0.26,2.99,0.62,2.91,2.81c-0.18,4.79-0.19,9.58-0.3,14.37
		c-0.02,0.94-0.11,1.9-0.26,2.83c-0.48,3.04-2.24,4.88-5.14,5.42c-5.1,0.97-8.56-1.73-8.75-6.91c-0.13-3.63-0.16-7.26-0.16-10.89
		c0-2.7-0.01-5.39-0.01-8.09c-4.11,0.53-8.29,1.06-12.55,1.58c0,0.43,0,0.85,0,1.28c0.01,6.45-0.2,12.91,0.17,19.34
		c0.41,7.12,5.54,12.95,12.43,14.75c4.51,1.18,9.07,1.14,13.58,0c6.03-1.52,9.9-5.44,11.63-11.31c0.77-2.62,1.26-5.41,1.28-8.13
		c0.05-7.05-0.11-14.09-0.2-21.14c-5.93,0.86-12.07,1.72-18.4,2.58C464.73,244.45,465.4,244.92,466.71,244.81z"/>
	<path class="st2" d="M515.29,237.46c0.33,2.1,1.15,4.13,1.39,6.23c0.31,2.73,0.32,5.49,0.35,8.25c0,0.37-0.59,1.07-0.92,1.08
		c-3.67,0.08-7.34,0.05-11.47,0.05c0.73-5.38,1.45-10.69,2.17-15.98c-3.38,0.54-6.85,1.09-10.41,1.63c-0.1,0.83-0.21,1.65-0.34,2.47
		c-0.61,3.59-1.83,7.07-2.49,10.65c-1.21,6.59-2.22,13.22-3.28,19.84c-0.48,2.99-0.9,5.99-1.37,9.12c4.13,0,7.89,0,11.87,0
		c0.7-4.89,1.41-9.49,2.01-14.1c0.2-1.55,0.7-2.45,2.48-2.42c3.87,0.08,7.73,0.07,11.6,0.01c1.49-0.02,2.06,0.57,2.25,2.04
		c0.53,4.23,1.18,8.44,1.86,12.64c0.11,0.66,0.62,1.79,0.98,1.81c3.98,0.13,7.96,0.08,12.01,0.08c0-0.76,0.06-1.16-0.01-1.54
		c-2.43-13.89-4.92-27.76-7.29-41.66c-0.21-1.26-0.41-2.52-0.61-3.78c-3.53,0.61-7.2,1.23-11.02,1.86
		C515.11,236.32,515.2,236.89,515.29,237.46z"/>
	<path class="st2" d="M567.41,226.15c0,1.47-0.01,2.94-0.02,4.41c-0.01,2.25-2.18,3.03-3.55,3.36c-2.85,0.68-5.9,0.61-8.87,0.61
		c-0.39,0-1.09-1.39-1.11-2.16c-0.04-1.18-0.05-2.35-0.06-3.53c-3.89,0.75-8.13,1.55-12.73,2.38c-0.04,5.05-0.07,10.1-0.1,15.15
		c-0.05,10.66-0.04,21.32,0.05,31.98c0.01,0.85,0.8,2.4,1.3,2.43c3.76,0.21,7.53,0.11,11.63,0.11c0-1.27,0-2.13,0-3
		c0-9.63,0.05-19.27-0.04-28.9c-0.02-2,0.45-2.94,2.63-2.73c1.72,0.16,3.47,0.07,5.2,0.01c10.27-0.4,16.22-5.18,17.94-14.76
		c0.45-2.51,0.03-5.17,0.06-7.76c0-0.07,0-0.15,0.01-0.22C577.4,224.05,573.22,224.96,567.41,226.15z"/>
	<path class="st2" d="M222.16,278.29c-0.01,2.1,0.55,2.7,2.64,2.68c10.34-0.09,20.68-0.03,31.01-0.04c0.76,0,1.52-0.1,2.39-0.16
		c0-3.87,0-7.54,0-11.39c-0.76-0.06-1.23-0.14-1.7-0.14c-6.31-0.01-12.63-0.03-18.94,0c-1.42,0.01-2.42-0.15-2.41-2
		c0.01-3.25,0-6.5-0.01-9.75c-4.28-0.09-8.56-0.2-12.86-0.33C222.25,264.2,222.21,271.24,222.16,278.29z"/>
	<path class="st2" d="M393.36,258.12c-0.07,0-0.14,0-0.21,0c0-2.24,0-4.49,0-6.73c-3.91,0.36-7.85,0.7-11.83,1.04
		c-0.03,8.69-0.08,17.37-0.12,26.06c-0.01,1.29-0.16,2.48,1.85,2.47c10.73-0.07,21.46-0.05,32.19-0.01
		c1.45,0.01,1.97-0.52,1.94-1.92c-0.05-2.52-0.09-5.06,0.03-7.58c0.09-1.8-0.63-2.29-2.34-2.27c-6.15,0.08-12.31-0.02-18.46,0.05
		c-1.7,0.02-2.39-0.5-2.39-2.28c0-5.21-0.07-10.43-0.12-15.64c-0.18,0.02-0.36,0.03-0.53,0.05
		C393.36,253.62,393.36,255.87,393.36,258.12z"/>
	<path class="st2" d="M296.49,257.61c-0.01,7.02-0.04,14.05-0.16,21.07c-0.03,1.75,0.5,2.38,2.29,2.29
		c2.76-0.14,5.53-0.13,8.28-0.02c1.77,0.07,2.35-0.58,2.31-2.33c-0.13-5.92-0.19-11.84-0.2-17.75c0-1.35,0-2.7-0.01-4.04
		c-4.15,0.15-8.33,0.28-12.52,0.4C296.49,257.36,296.49,257.48,296.49,257.61z"/>
	<path class="st2" d="M101.93,258.45c-0.03,6.71-0.02,13.41-0.01,20.12c0,1.07-0.26,2.35,1.49,2.35c3.69-0.01,7.39,0,11.5,0
		c0-1.39,0-2.4,0-3.41c-0.04-9.7-0.11-19.41-0.12-29.11c0-0.08,0-0.16,0-0.25c-4.27-0.61-8.53-1.26-12.78-1.94
		C101.98,250.29,101.95,254.37,101.93,258.45z"/>
	<path class="st3" d="M212.9,236.35c0.01-1.93-0.82-2.73-2.69-2.72c-4.65,0.03-9.31,0.01-13.96,0.05c-0.58,0-1.16,0.23-1.6,0.32
		c0,3.72,0,7.17,0,10.83c1.93,0,3.41-0.24,4.75,0.09c0.79,0.2,1.95,1.29,1.95,1.97c-0.03,3.14-0.11,6.27-0.22,9.41
		c3.92,0.2,7.85,0.37,11.76,0.53C212.92,250,212.85,243.17,212.9,236.35z"/>
	<path class="st3" d="M481.01,233.76c-4.95,0.05-9.9,0.18-14.85,0.45c-0.55,0.03-1.44,1.07-1.49,1.69
		c-0.18,2.28-0.02,4.57-0.08,6.86c-0.01,0.19,0,0.37,0.02,0.54c6.33-0.85,12.47-1.71,18.4-2.58c-0.02-1.63-0.04-3.26-0.05-4.89
		C482.95,234.33,482.16,233.74,481.01,233.76z"/>
	<path class="st3" d="M413.24,207.21c-5.77,0-11.55,0-17.32,0c0,0.07,0,0.13,0,0.2c5.77,0,11.55,0,17.32,0
		C413.24,207.34,413.24,207.27,413.24,207.21z"/>
	<path class="st3" d="M393.18,226.24c0.05,0,0.11,0,0.16,0c0-4.45,0-8.9,0-13.35c-0.05,0-0.11,0-0.16,0
		C393.18,217.34,393.18,221.79,393.18,226.24z"/>
	<path class="st3" d="M4.28,221.65c0.06,0,0.13,0,0.19,0c0-6.24,0-12.48,0-18.71c-0.06,0-0.13,0-0.19,0
		C4.28,209.18,4.28,215.41,4.28,221.65z"/>
	<path class="st3" d="M42.65,224.51c0.33-4.83,0.23-9.72-0.17-14.55c-0.71-8.67-6.97-12.65-13.95-13.12
		c-7.15-0.48-14.35-0.37-21.52-0.47c-3.07-0.04-3.14,0.06-3.15,3.23c-0.01,7.82-0.02,15.63-0.03,23.45
		c4.25,1.39,8.54,2.72,12.86,4.01c-0.06-6.36-0.05-12.74-0.05-19.22c2.84,0,5.13,0.07,7.41-0.01c4.43-0.16,6.79,3.72,6.92,7.18
		c0.13,3.27-0.25,6.58-0.64,9.84c-0.3,2.47-1.44,4.24-3.24,5.22c3.7,1.03,7.41,2.03,11.14,2.99
		C40.76,230.82,42.42,227.99,42.65,224.51z M4.47,221.65c-0.06,0-0.13,0-0.19,0c0-6.24,0-12.48,0-18.71c0.06,0,0.13,0,0.19,0
		C4.47,209.17,4.47,215.41,4.47,221.65z"/>
	<path class="st3" d="M83.79,238.24c-0.11-0.05-0.16-0.25-0.52-0.85c0.91-0.72,1.85-1.52,2.84-2.24c0.69-0.5,1.83-0.74,2.11-1.38
		c1.27-2.89,2.94-5.82,3.27-8.86c0.52-4.9,0.41-9.93-0.05-14.85c-0.3-3.16-0.9-6.68-4.77-8.02c-0.59-0.2-0.94-1.03-1.47-1.49
		c-1.07-0.94-2.06-2.14-3.32-2.65c-1.72-0.69-3.66-1.1-5.51-1.14c-6.85-0.18-13.71-0.04-20.56-0.27c-2.38-0.08-2.76,0.83-2.75,2.86
		c0.05,11.53,0.02,23.05,0,34.58c0,0.92,0,1.85,0,2.77c12.22,2.84,24.61,5.34,37.11,7.54C88.95,241.7,86.99,239.58,83.79,238.24z
		 M79.37,215.24c-0.22,4.42-0.12,8.9-0.87,13.23c-0.51,2.98-3.23,4.3-6.29,4.35c-2.09,0.04-4.18,0.01-6.35,0.01
		c0-8.05,0.05-15.68-0.04-23.31c-0.02-1.61,0.31-2.14,1.97-1.86c1.46,0.24,2.99,0.31,4.46,0.16c3.12-0.32,5.17,1.6,6.96,3.55
		C79.89,212.09,79.43,213.92,79.37,215.24z"/>
	<path class="st3" d="M165.06,217.07c0-4.95-1.21-9.4-3.92-13.73c-2.57-4.1-6.23-6.1-10.42-6.35c-8.15-0.5-16.35-0.15-24.64-0.15
		c-0.16,1.26-0.52,2.81-0.54,4.37c-0.07,5.84-0.03,11.68-0.03,17.52c0,10.29,0.01,20.59-0.01,30.88c4.22,0.55,8.44,1.07,12.67,1.55
		c0-4.18,0-8.35,0-12.53c-0.06,0-0.12,0-0.18,0c0-9.08-0.01-18.15,0.01-27.23c0.01-3.54,0.04-3.54,3.47-3.54
		c2.57,0,5.13-0.03,7.7,0.02c0.32,0.01,0.84,0.3,0.93,0.57c0.85,2.49,2.28,5,2.31,7.52c0.13,12.24,0.06,24.48-0.02,36.72
		c4.21,0.42,8.43,0.81,12.65,1.17C165.1,241.59,165.06,229.33,165.06,217.07z"/>
	<path class="st3" d="M370.56,199.15c0.01-2.08-0.75-2.86-2.74-2.8c-2.13,0.07-4.26-0.01-6.39,0.04c-3.16,0.07-3.36,0.28-3.37,3.37
		c-0.01,9.47-0.07,18.95,0.03,28.42c0.02,2.22-0.74,2.9-2.88,2.81c-3.31-0.14-6.63-0.11-9.94,0.03c-2.01,0.08-2.72-0.71-2.55-2.62
		c0.08-0.86,0-1.74,0-2.6c0-8.84-0.02-17.68,0-26.53c0-1.56-0.17-2.89-2.19-2.89c-3.14,0.01-6.28,0-9.73,0
		c0.36,0.49,0.69,0.75,0.65,0.93c-0.38,1.75-1.19,3.49-1.2,5.24c-0.09,17.05-0.06,34.1-0.05,51.16c0,0.73,0.01,1.46,0.03,2.2
		c4.22-0.22,8.41-0.45,12.57-0.7c-0.03-2.82-0.05-5.64-0.08-8.45c-0.01-0.47-0.09-0.95-0.07-1.42c0.06-1.12,0.17-2.24,0.23-2.89
		c3.88,0,7.01-0.01,10.13,0c5.18,0.02,5.05-0.85,5.03,5.15c-0.01,2.21-0.02,4.41-0.03,6.62c4.22-0.29,8.4-0.6,12.55-0.92
		c0-1.55-0.01-3.1-0.02-4.65C370.52,232.15,370.5,215.65,370.56,199.15z"/>
	<path class="st3" d="M186.4,215.72c0-0.94,0.07-1.89,0.18-2.83c0.49-4.14,3.36-6.68,7.5-6.67c3.74,0.01,6.42,2.63,6.79,6.81
		c0.23,2.59,0.25,5.19,0.37,7.79c0.07,1.59,0.69,2.4,2.49,2.26c2.28-0.17,4.58-0.12,6.86-0.02c1.76,0.07,2.47-0.66,2.32-2.37
		c-0.3-3.48-0.77-6.95-0.79-10.43c-0.02-3.43-1.34-6.25-3.44-8.7c-4.98-5.81-14.46-8.09-22.13-5.29c-2.03,0.74-3.84,2.12-5.67,3.33
		c-0.81,0.54-1.46,1.35-2.1,2.12c-0.59,0.71-1.09,1.52-1.6,2.3c-0.67,1.02-1.7,1.99-1.89,3.1c-0.64,3.68-1.32,7.41-1.38,11.13
		c-0.18,12.1-0.17,24.2-0.21,36.3c4.24,0.33,8.48,0.62,12.71,0.9C186.37,242.21,186.39,228.96,186.4,215.72z"/>
	<path class="st3" d="M456.72,212.91c0.03-3.57,2.89-6.3,6.26-6.49c4.46-0.24,7.31,1.78,7.81,5.82c0.34,2.73,0.31,5.5,0.5,8.25
		c0.08,1.17,0.04,2.5,1.79,2.5c2.99,0,5.98,0,9.83,0c0-2.55,0.03-5.04-0.01-7.52c-0.12-8.9-2.88-16.1-12.22-19.15
		c-5.22-1.71-10.37-1.48-15.47,0.31c-0.84,0.29-1.46,1.15-2.24,1.64c-1.29,0.81-2.91,1.27-3.89,2.35c-2.94,3.23-4.54,7.17-4.8,11.55
		c-0.19,3.23-0.15,6.47-0.16,9.71c-0.02,8.02-0.02,16.04,0,24.06c4.26-0.52,8.44-1.05,12.55-1.58
		C456.65,233.87,456.64,223.39,456.72,212.91z"/>
	<path class="st3" d="M520.67,199.38c-0.14-0.81-0.96-1.5-1.46-2.23c0.05-0.04,0.27-0.23,0.91-0.78c-5.52,0-10.48-0.07-15.44,0.08
		c-0.66,0.02-1.58,0.98-1.88,1.71c-0.49,1.19-0.59,2.55-0.79,3.84c-0.47,3.01-0.85,6.04-1.37,9.04c-1.06,6.14-2.28,12.25-3.25,18.41
		c-0.48,3.06-0.63,6.18-0.99,9.26c3.56-0.55,7.04-1.09,10.41-1.63c1.18-8.67,2.34-17.25,3.51-25.83c0.38-0.01,0.77-0.02,1.15-0.03
		c0.5,3.45,0.99,6.9,1.49,10.35c0.68,4.72,1.33,9.45,2.06,14.17c3.81-0.63,7.49-1.25,11.02-1.86c-0.85-5.35-1.59-10.72-2.42-16.08
		C522.68,211.66,521.73,205.51,520.67,199.38z"/>
	<path class="st3" d="M553.8,221.24c0,0,0.01,0,0.01,0c0-3.71,0.05-7.42-0.02-11.13c-0.03-1.58,0.47-2.35,2.15-2.28
		c2.04,0.09,4.09-0.05,6.12,0.11c3.03,0.23,5.23,2.52,5.28,5.57c0.07,4.21,0.08,8.43,0.06,12.64c5.81-1.19,9.99-2.09,12.34-2.61
		c0.04-2.91,0.26-5.83,0.14-8.73c-0.09-2.12-0.63-4.22-0.97-6.33c-0.01-0.08-0.06-0.15-0.08-0.22c-2.23-6.53-6.89-11-14.28-11.48
		c-7-0.45-14.03-0.27-21.05-0.43c-1.83-0.04-2.22,0.8-2.23,2.46c-0.05,10.81-0.14,21.62-0.22,32.43c4.6-0.84,8.84-1.64,12.73-2.38
		C553.77,226.31,553.8,223.77,553.8,221.24z"/>
	<path class="st3" d="M237.5,242.33c4.49,0.16,8.99,0.03,13.49,0.14c1.86,0.04,2.58-0.73,2.52-2.51c-0.05-1.66,0.01-3.32-0.01-4.97
		c-0.03-2.74-1.29-4-4.06-4.02c-4.18-0.02-8.37-0.02-12.55,0.01c-1.5,0.01-2-0.51-1.96-2.12c0.15-6.08,0.23-12.16,0.06-18.23
		c-0.06-2.27,0.59-2.85,2.75-2.81c6.54,0.11,13.08,0.04,19.61,0.04c0-0.12,0-0.25,0-0.37c-6.85,0-13.69,0-20.54,0
		c6.07-0.38,12.13-0.37,18.2-0.38c3.24-0.01,3.31-0.02,3.2-3.35c-0.08-2.31-0.38-4.61-0.62-7.36c-10.98,0-22.01,0-33.04,0.01
		c-1.35,0-2.01,0.74-1.99,2.09c0.01,0.87-0.04,1.74-0.04,2.6c-0.07,18.69-0.13,37.38-0.23,56.07c4.29,0.13,8.58,0.24,12.86,0.33
		c-0.02-4.33-0.05-8.65-0.1-12.98C235.02,242.72,235.75,242.27,237.5,242.33z"/>
	<path class="st3" d="M397.02,242.41c4.88,0,9.77,0,15.24,0c0-3.16-0.08-6.18,0.03-9.19c0.06-1.82-0.75-2.29-2.41-2.27
		c-4.5,0.06-9-0.07-13.49,0.05c-1.93,0.05-2.64-0.5-2.6-2.51c0.11-5.52,0.04-11.05,0.04-16.57c0-0.63,0.24-1.5-0.08-1.85
		c-1.37-1.52,0.11-1.74,0.92-2.06c0.62-0.25,1.4-0.13,2.11-0.13c5.92-0.02,11.83-0.04,17.75-0.02c1.32,0,2.42-0.18,2.44-1.82
		c0.02-3.09,0.01-6.18,0.01-9.65c-11.55,0-22.27-0.04-33,0.09c-0.79,0.01-1.8,1.19-2.29,2.06c-0.42,0.75-0.32,1.83-0.32,2.77
		c-0.02,15.31,0,30.63-0.03,45.94c0,1.73-0.01,3.46-0.02,5.19c3.98-0.34,7.93-0.68,11.83-1.04c0-1.93,0-3.85,0-5.78
		c0.07,0.01,0.14,0.02,0.21,0.03c0,1.91,0,3.82,0,5.73c0.18-0.02,0.36-0.03,0.53-0.05c-0.02-1.97-0.04-3.93-0.04-5.9
		C393.84,242.57,394.07,242.41,397.02,242.41z M395.92,207.21c5.77,0,11.55,0,17.32,0c0,0.07,0,0.13,0,0.2c-5.77,0-11.55,0-17.32,0
		C395.92,207.34,395.92,207.27,395.92,207.21z M393.34,226.24c-0.05,0-0.11,0-0.16,0c0-4.45,0-8.9,0-13.35c0.05,0,0.11,0,0.16,0
		C393.34,217.34,393.34,221.79,393.34,226.24z"/>
	<path class="st3" d="M311.1,207.58c3.55,0.12,7.12,0.04,10.68,0.04c0-0.06,0-0.12,0.01-0.18c-2.88,0-5.76,0-8.64,0
		c1.43-0.32,2.84-0.32,4.26-0.32c6.25-0.03,5.45,0.5,5.42-5.44c-0.01-1.7-0.39-3.4-0.63-5.3c-12.48,0-24.79,0.01-37.09-0.01
		c-1.9,0-2.98,0.65-2.78,2.8c0.15,1.64,0.01,3.31,0.03,4.97c0.02,2.24,1.54,3.7,3.84,3.71c2.45,0.01,4.89-0.01,7.34,0
		c2.92,0.01,3,0.09,3,3.1c-0.01,15.43,0,30.86-0.03,46.28c4.19-0.12,8.37-0.25,12.52-0.4c-0.03-15.78-0.03-31.57-0.07-47.35
		C308.94,207.89,309.58,207.52,311.1,207.58z"/>
	<path class="st3" d="M114.78,199.15c0.01-1.81-0.53-2.62-2.37-2.61c-2.05,0.01-4.1-0.15-6.14-0.17c-3.97-0.03-3.98,0-4.01,3.86
		c-0.09,15.33-0.18,30.65-0.26,45.98c4.25,0.68,8.51,1.32,12.78,1.94C114.75,231.81,114.73,215.48,114.78,199.15z"/>
</g>
</svg>
